<?xml version="1.0" standalone="no"?>
<!DOCTYPE svg PUBLIC "-//W3C//DTD SVG 20010904//EN"
 "http://www.w3.org/TR/2001/REC-SVG-20010904/DTD/svg10.dtd">
<svg version="1.0" xmlns="http://www.w3.org/2000/svg"
 width="915.000000pt" height="1280.000000pt" viewBox="0 0 915.000000 1280.000000"
 preserveAspectRatio="xMidYMid meet">
<g transform="translate(0.000000,1280.000000) scale(0.100000,-0.100000)"
fill="#000000" stroke="none">
<path d="M4325 12789 c-547 -41 -864 -100 -1245 -231 -1207 -416 -2105 -1437
-2617 -2977 -243 -732 -387 -1547 -433 -2461 -6 -118 -15 -290 -20 -382 -13
-212 -13 -449 0 -653 5 -88 14 -245 20 -350 77 -1345 401 -2517 971 -3510 493
-860 1091 -1461 1809 -1821 224 -112 441 -196 674 -259 375 -102 957 -164
1271 -136 72 7 180 16 240 22 837 76 1575 384 2190 914 134 116 366 355 486
501 864 1053 1354 2490 1449 4249 5 110 15 280 20 378 13 225 13 429 0 654 -5
98 -15 268 -20 378 -49 905 -207 1751 -462 2475 -166 471 -428 1002 -681 1380
-726 1084 -1747 1702 -2987 1810 -69 6 -169 15 -223 20 -112 11 -283 11 -442
-1z m493 -2998 c167 -49 305 -134 430 -266 345 -364 570 -1084 657 -2105 27
-322 36 -591 36 -1095 -1 -1385 -100 -2119 -356 -2640 -183 -374 -411 -584
-725 -671 -136 -37 -364 -45 -500 -16 -426 89 -716 412 -909 1015 -186 583
-264 1475 -239 2747 38 1985 384 2900 1151 3046 109 20 361 12 455 -15z"/>
</g>
</svg>
